<svg width="91" height="59" viewBox="0 0 91 59" fill="none" xmlns="http://www.w3.org/2000/svg">
<path d="M18.0126 10.2961C16.0305 10.2961 14.1222 10.6178 12.3378 11.209C12.2677 11.2324 12.1959 11.2557 12.1258 11.2809C9.52022 12.1829 7.18419 13.6636 5.27583 15.572C4.6487 16.1991 4.06828 16.873 3.53819 17.5864C2.78347 18.6034 2.13297 19.7032 1.60288 20.8694C1.59389 20.8891 1.58491 20.9107 1.57592 20.9305C0.564241 23.1838 0 25.6816 0 28.3105C0 33.5846 2.26775 38.3303 5.8796 41.6241C9.08176 44.5441 13.3387 46.3249 18.0126 46.3249C18.0162 46.3249 18.0216 46.3249 18.0252 46.3249C18.1617 46.3249 18.3001 46.3231 18.4367 46.3195C18.4852 46.3177 18.5337 46.3159 18.5822 46.3159C18.6757 46.3123 18.7673 46.3087 18.8607 46.3051C18.9182 46.3033 18.9739 46.2997 19.0314 46.2961C19.1159 46.2908 19.2004 46.2854 19.2848 46.28C19.3441 46.2764 19.4034 46.271 19.4627 46.2674C19.5472 46.2602 19.6316 46.253 19.7143 46.2458C19.77 46.2404 19.8275 46.235 19.8832 46.2297C20.009 46.2171 20.1348 46.2027 20.2606 46.1865C20.3378 46.1775 20.4151 46.1668 20.4924 46.156C20.5481 46.1488 20.6038 46.1416 20.6595 46.1326C20.7421 46.12 20.8266 46.1075 20.9093 46.0931C20.956 46.0859 21.0009 46.0787 21.0476 46.0697C21.1375 46.0536 21.2273 46.0392 21.3154 46.023C21.3459 46.0176 21.3747 46.0122 21.4052 46.005C21.8598 45.9188 22.3091 45.8146 22.7511 45.6942C22.7547 45.6924 22.7601 45.6924 22.7637 45.6906C25.4627 44.9538 27.9102 43.6061 29.9461 41.8038V46.3249H36.027V28.3105C36.027 18.3608 27.9623 10.2961 18.0126 10.2961ZM29.9461 28.3105C29.9461 33.6241 26.4528 38.138 21.6424 39.678V39.6762C20.9308 39.9044 20.1923 40.0661 19.4304 40.1578C19.4178 40.1596 19.407 40.1614 19.3944 40.1614C19.1087 40.1955 18.8194 40.2171 18.5265 40.2297C18.496 40.2315 18.4672 40.2315 18.4367 40.2332C18.2965 40.2386 18.1545 40.2422 18.0126 40.2422C15.5867 40.2422 13.3261 39.5127 11.4411 38.2638C11.3297 38.1901 11.2183 38.1147 11.1105 38.0374C10.8769 37.8703 10.6487 37.696 10.4277 37.5145C7.77538 35.324 6.08086 32.0104 6.08086 28.3105C6.08086 27.2449 6.22282 26.2099 6.48518 25.2252C6.54987 24.9826 6.62174 24.7436 6.70081 24.5064C6.70261 24.4992 6.7044 24.4938 6.708 24.4866C7.74124 21.439 9.97484 18.9394 12.8446 17.5558C13.1051 17.43 13.3711 17.3132 13.6424 17.2072C14.0934 17.0293 14.5588 16.8766 15.035 16.7544C15.1303 16.7292 15.2255 16.7058 15.3226 16.6843C15.4969 16.6448 15.6712 16.6088 15.8491 16.5765C15.8814 16.5711 15.9137 16.5639 15.9479 16.5585C16.6199 16.4399 17.31 16.3788 18.0162 16.3788C18.9416 16.3788 19.8419 16.4848 20.708 16.6843C20.9973 16.7508 21.2812 16.828 21.5615 16.9161C26.4115 18.4273 29.9461 22.9646 29.9461 28.3105Z" fill="#EA0029"/>
<path d="M72.0863 10.2961C62.1384 10.2961 54.0737 18.3608 54.0737 28.3087C54.0737 38.2566 62.1384 46.3213 72.0863 46.3213C82.0342 46.3213 90.0989 38.2566 90.0989 28.3087C90.0989 18.3608 82.0342 10.2961 72.0863 10.2961ZM72.0863 40.2422C65.5059 40.2422 60.1546 34.8891 60.1546 28.3105C60.1546 21.7319 65.5077 16.3788 72.0863 16.3788C78.6667 16.3788 84.018 21.7319 84.018 28.3105C84.018 34.8891 78.6649 40.2422 72.0863 40.2422Z" fill="#EA0029"/>
<path d="M49.3768 10.2961H43.2959V46.3231H49.3768V10.2961Z" fill="#EA0029"/>
<path d="M54.9617 3.45732C54.9617 5.81851 53.0461 7.73405 50.6849 7.73405H43.2959V4.27673C43.2959 1.91554 45.2114 0 47.5726 0H54.9617V3.45732Z" fill="#EA0029"/>
<path d="M7.01363 52.7441C6.90402 52.5536 6.76925 52.3793 6.61471 52.2248C6.46017 52.0702 6.28407 51.9354 6.09539 51.824C5.90671 51.7144 5.69827 51.6264 5.47724 51.5653C5.25622 51.5042 5.02262 51.4736 4.78182 51.4736H3.28497C3.13223 51.4736 3.04058 51.5671 3.04058 51.7234V53.7018H2.82675C2.67221 53.7018 2.58057 53.7899 2.58057 53.939V54.2068C2.58057 54.3595 2.67221 54.4512 2.82675 54.4512H3.04058V56.3829C3.04058 56.4871 3.08551 56.541 3.12324 56.568C3.16817 56.6003 3.22208 56.6165 3.28317 56.6165H4.78003C5.01722 56.6165 5.24903 56.5859 5.46826 56.5248C5.68748 56.4637 5.89413 56.3775 6.08461 56.2661C6.27509 56.1565 6.44939 56.0199 6.60572 55.8636C6.76206 55.7072 6.89683 55.5329 7.00824 55.3442C7.11785 55.1556 7.2059 54.9489 7.267 54.7315C7.3281 54.5123 7.35864 54.2841 7.35864 54.0487C7.35864 53.8097 7.3281 53.5779 7.2688 53.3586C7.2095 53.1394 7.12324 52.9327 7.01363 52.7441ZM3.7989 54.4512H4.18704C4.25712 54.4512 4.31821 54.4242 4.36134 54.3739C4.40267 54.3254 4.42244 54.2697 4.42244 54.2086V53.9408C4.42244 53.8492 4.3829 53.7953 4.34876 53.7647C4.30384 53.7252 4.24813 53.7036 4.18524 53.7036H3.7971V52.2248H4.78003C5.02441 52.2248 5.25981 52.2679 5.48084 52.3523C5.70186 52.4368 5.89773 52.5572 6.06305 52.7117C6.22837 52.8663 6.36134 53.0549 6.46017 53.2742C6.55721 53.4934 6.60752 53.7414 6.60752 54.0091C6.60752 54.169 6.58775 54.329 6.54642 54.4853C6.50689 54.6398 6.44759 54.7872 6.37392 54.9256C6.30024 55.0621 6.2086 55.1897 6.10258 55.3047C5.99656 55.4197 5.87616 55.5203 5.74499 55.603C5.61381 55.6857 5.46826 55.7522 5.31192 55.7989C5.15739 55.8456 4.99207 55.869 4.81776 55.869H3.7953V54.4512H3.7989Z" fill="#221F1F"/>
<path d="M10.8392 53.1514H10.6452C10.5589 53.1514 10.4942 53.1783 10.4529 53.2305C10.4188 53.2736 10.4008 53.3311 10.3936 53.4066L10.3864 53.509C10.3774 53.5 10.3702 53.4892 10.3613 53.4802C10.2966 53.4083 10.2211 53.3419 10.133 53.2862C10.0468 53.2305 9.94616 53.1855 9.83475 53.1514C9.72334 53.1172 9.59396 53.1011 9.4502 53.1011C9.20222 53.1011 8.97222 53.1496 8.76377 53.243C8.55712 53.3365 8.37743 53.4659 8.22828 53.6276C8.07913 53.7893 7.96233 53.9816 7.88147 54.199C7.80061 54.4146 7.75928 54.65 7.75928 54.8962C7.75928 55.1424 7.80061 55.376 7.88327 55.5916C7.96593 55.8073 8.08273 55.9995 8.23187 56.1595C8.38102 56.3212 8.56072 56.4506 8.76736 56.544C8.97401 56.6375 9.20402 56.6842 9.44841 56.6842C9.58857 56.6842 9.71795 56.668 9.82936 56.6375C9.94077 56.6069 10.0414 56.562 10.1277 56.5081C10.2139 56.4542 10.2894 56.3895 10.3559 56.3176C10.3595 56.3122 10.3648 56.3086 10.3684 56.3032V56.3571C10.3684 56.429 10.3882 56.4901 10.4277 56.5386C10.4709 56.5907 10.5374 56.6177 10.6218 56.6177H10.8356C10.9039 56.6177 10.965 56.5979 11.0153 56.5584C11.0728 56.5153 11.1016 56.4524 11.1016 56.3805V53.4119C11.1016 53.3329 11.0728 53.2646 11.0153 53.2179C10.9686 53.173 10.9075 53.1514 10.8392 53.1514ZM10.3702 54.9052C10.3702 55.0561 10.3487 55.1963 10.3055 55.3239C10.2642 55.4497 10.2031 55.5611 10.1259 55.6509C10.0486 55.7408 9.95335 55.8127 9.84014 55.8648C9.61732 55.969 9.29207 55.9708 9.05847 55.8612C8.94167 55.8073 8.84104 55.7318 8.75838 55.6384C8.67572 55.5449 8.61103 55.4335 8.56611 55.3077C8.52118 55.1801 8.49782 55.04 8.49782 54.8926C8.49782 54.7471 8.52118 54.6087 8.56431 54.4793C8.60744 54.3517 8.67213 54.2385 8.75479 54.1451C8.83744 54.0517 8.93807 53.9762 9.05487 53.9205C9.17168 53.8648 9.30465 53.8378 9.4502 53.8378C9.59755 53.8378 9.73053 53.8666 9.84373 53.9223C9.95694 53.978 10.054 54.0552 10.1312 54.1487C10.2085 54.2439 10.2696 54.3571 10.3091 54.4865C10.3505 54.6195 10.3702 54.7597 10.3702 54.9052Z" fill="#221F1F"/>
<path d="M16.7623 51.5365C16.7101 51.4952 16.6437 51.4736 16.5646 51.4736H16.3705C16.2843 51.4736 16.2178 51.497 16.1693 51.5419C16.1351 51.5743 16.0938 51.6318 16.0938 51.7288V53.4646C16.0866 53.4557 16.0776 53.4485 16.0704 53.4395C16.0003 53.3694 15.9195 53.3083 15.8314 53.2598C15.7434 53.2113 15.6446 53.1717 15.5367 53.1448C15.4289 53.1178 15.3067 53.1035 15.1738 53.1035C14.9276 53.1035 14.7012 53.152 14.5017 53.2454C14.3022 53.3389 14.1315 53.47 13.9896 53.6318C13.8494 53.7935 13.7398 53.9858 13.6625 54.2032C13.5871 54.4188 13.5493 54.6524 13.5493 54.8986C13.5493 55.1448 13.5871 55.3766 13.6625 55.5922C13.738 55.8079 13.8476 56.0001 13.9896 56.1619C14.1315 56.3254 14.304 56.4548 14.5017 56.5464C14.7012 56.6398 14.9276 56.6866 15.1738 56.6866C15.3067 56.6866 15.4289 56.674 15.5367 56.647C15.6446 56.6201 15.7434 56.5823 15.8314 56.532C15.9195 56.4835 15.9986 56.4242 16.0686 56.3559C16.0776 56.3487 16.0848 56.3398 16.0938 56.3308V56.3577C16.0938 56.462 16.1387 56.5213 16.1782 56.5536C16.2286 56.5967 16.295 56.6183 16.3741 56.6183H16.5754C16.658 56.6183 16.7263 56.5949 16.7748 56.5482C16.8108 56.5159 16.8521 56.4566 16.8521 56.3577V51.7288C16.8521 51.6479 16.8198 51.5832 16.7623 51.5365ZM16.1495 54.8986C16.1495 55.0442 16.1261 55.1825 16.0812 55.3119C16.0363 55.4395 15.9716 55.5527 15.8907 55.6479C15.8099 55.7414 15.711 55.8168 15.5978 55.8726C15.4864 55.9283 15.3606 55.9552 15.2259 55.9552C15.0731 55.9552 14.9384 55.9265 14.8251 55.8726C14.7119 55.8168 14.6149 55.7414 14.5394 55.6497C14.4622 55.5563 14.4047 55.4431 14.3651 55.3155C14.3256 55.1861 14.3058 55.046 14.3058 54.8986C14.3058 54.7513 14.3256 54.6111 14.3651 54.4817C14.4047 54.3541 14.4622 54.2409 14.5394 54.1457C14.6149 54.0522 14.7119 53.9768 14.8233 53.9229C14.9366 53.869 15.0713 53.842 15.2241 53.842C15.3606 53.842 15.4882 53.869 15.5996 53.9229C15.7128 53.9768 15.8099 54.0522 15.8889 54.1475C15.9698 54.2427 16.0327 54.3577 16.0794 54.4853C16.1279 54.6147 16.1495 54.7549 16.1495 54.8986Z" fill="#221F1F"/>
<path d="M18.3129 57.0941C18.268 57.0492 18.2123 57.0114 18.1512 56.9845C18.029 56.9306 17.8745 56.9288 17.7505 56.9845C17.6912 57.0114 17.6373 57.0474 17.5924 57.0941C17.5456 57.1408 17.5097 57.1947 17.4827 57.2558C17.4558 57.3187 17.4414 57.3852 17.4414 57.4553C17.4414 57.5253 17.4558 57.5918 17.4827 57.6529C17.5097 57.7122 17.5456 57.7661 17.5924 57.8111C17.6373 57.856 17.6912 57.8937 17.7523 57.9207C17.8134 57.9476 17.8799 57.962 17.9499 57.962C18.0218 57.962 18.0901 57.9476 18.153 57.9207C18.2141 57.8937 18.268 57.8578 18.3147 57.8111C18.3614 57.7643 18.3974 57.7104 18.4225 57.6511C18.4477 57.59 18.4621 57.5236 18.4621 57.4535C18.4621 57.3834 18.4495 57.3169 18.4243 57.2558C18.3956 57.1965 18.3578 57.1408 18.3129 57.0941Z" fill="#221F1F"/>
<path d="M18.3129 51.9566C18.268 51.9117 18.2123 51.874 18.1512 51.847C18.0272 51.7931 17.8745 51.7913 17.7505 51.847C17.6912 51.874 17.6373 51.9099 17.5924 51.9566C17.5474 52.0016 17.5097 52.0573 17.4827 52.1184C17.4558 52.1812 17.4414 52.2477 17.4414 52.3178C17.4414 52.3879 17.4558 52.4544 17.4827 52.5155C17.5097 52.5748 17.5456 52.6287 17.5924 52.6736C17.6373 52.7185 17.6912 52.7563 17.7523 52.7832C17.8134 52.8102 17.8799 52.8246 17.9517 52.8246C18.0236 52.8246 18.0919 52.8102 18.1548 52.7832C18.2159 52.7563 18.2698 52.7203 18.3165 52.6736C18.3632 52.6269 18.3992 52.573 18.4243 52.5137C18.4495 52.4526 18.4639 52.3861 18.4639 52.316C18.4639 52.2459 18.4513 52.1795 18.4261 52.1184C18.3956 52.0591 18.3578 52.0034 18.3129 51.9566Z" fill="#221F1F"/>
<path d="M17.8118 56.6159H18.0885C18.1586 56.6159 18.2161 56.5961 18.2592 56.5566C18.3059 56.5152 18.3293 56.4559 18.3293 56.3805V53.3886C18.3293 53.3203 18.3059 53.261 18.2592 53.2161C18.2143 53.1729 18.155 53.1514 18.0885 53.1514H17.8118C17.7381 53.1514 17.6788 53.1747 17.6357 53.2197C17.5943 53.2628 17.5728 53.3203 17.5728 53.3886V56.3805C17.571 56.5278 17.6608 56.6159 17.8118 56.6159Z" fill="#221F1F"/>
<path d="M21.8547 55.9996C21.8529 55.9942 21.8493 55.987 21.8457 55.9816L21.6624 55.7121C21.6085 55.633 21.5079 55.6114 21.4144 55.6564C21.3875 55.6689 21.3623 55.6833 21.3354 55.7049C21.2365 55.7893 21.1233 55.8576 20.9975 55.9061C20.7208 56.0139 20.4459 55.9978 20.2069 55.8935C20.0757 55.836 19.9589 55.757 19.8601 55.6581C19.7612 55.5593 19.6822 55.4425 19.6247 55.3113C19.5672 55.1802 19.5384 55.04 19.5384 54.8926C19.5384 54.7453 19.5672 54.6051 19.6247 54.474C19.6822 54.3428 19.7612 54.2242 19.8601 54.1254C19.9589 54.0265 20.0757 53.9457 20.2069 53.8882C20.4531 53.7803 20.7496 53.7714 20.9886 53.8756C21.1054 53.9259 21.2132 53.9924 21.3156 54.0732C21.3408 54.0912 21.3659 54.1056 21.3875 54.1182C21.4198 54.1361 21.4486 54.1433 21.4737 54.1433C21.5366 54.1433 21.5905 54.1182 21.6301 54.0714C21.6355 54.0643 21.6391 54.0589 21.6426 54.0517L21.817 53.7803C21.8259 53.766 21.8331 53.748 21.8421 53.721C21.8493 53.6977 21.8529 53.6761 21.8529 53.6564C21.8529 53.6078 21.8331 53.5629 21.799 53.527C21.7828 53.5108 21.7612 53.491 21.7343 53.4713C21.7289 53.4623 21.7199 53.4551 21.7109 53.4479C21.5258 53.3203 21.3444 53.2269 21.1718 53.1712C20.7657 53.0382 20.3039 53.0616 19.9212 53.2269C19.7037 53.3221 19.5097 53.4515 19.3479 53.6132C19.1862 53.7749 19.055 53.969 18.9634 54.1882C18.87 54.4075 18.8232 54.6447 18.8232 54.8926C18.8232 55.1424 18.87 55.3796 18.9634 55.5988C19.0568 55.8163 19.1862 56.0103 19.3479 56.1721C19.5097 56.3338 19.7037 56.4632 19.9212 56.5566C20.1404 56.6501 20.3776 56.6968 20.6274 56.6968C20.8412 56.6968 21.0443 56.6572 21.2347 56.5818C21.4198 56.5063 21.5905 56.4147 21.7379 56.3104C21.7666 56.2943 21.7936 56.2709 21.8241 56.244C21.8673 56.2044 21.8888 56.1505 21.8888 56.0912C21.8888 56.0678 21.8798 56.0463 21.8709 56.0283C21.8637 56.0157 21.8583 56.0068 21.8547 55.9996Z" fill="#221F1F"/>
<path d="M24.9146 53.5683C24.7888 53.4227 24.6325 53.3059 24.4528 53.2215C24.2713 53.137 24.0665 53.0939 23.8437 53.0939C23.7376 53.0939 23.637 53.1083 23.5454 53.1352C23.4555 53.1622 23.3711 53.1981 23.2938 53.243C23.2183 53.288 23.1482 53.3401 23.0835 53.3976C23.08 53.4012 23.0764 53.4048 23.0728 53.4084V51.7139C23.0728 51.6438 23.0476 51.5845 22.9991 51.5395C22.9524 51.4964 22.8949 51.4749 22.8302 51.4749H22.5552C22.4618 51.4749 22.4061 51.5126 22.3773 51.5449C22.336 51.5899 22.3145 51.6474 22.3145 51.7139V56.3805C22.3145 56.5297 22.4043 56.6177 22.5552 56.6177H22.8356C22.9847 56.6177 23.0728 56.5297 23.0728 56.3805V54.5548C23.0782 54.4578 23.1033 54.3661 23.1446 54.2799C23.186 54.1936 23.2417 54.1164 23.31 54.0535C23.3782 53.9906 23.4555 53.9385 23.5436 53.9025C23.7179 53.8289 23.9209 53.8307 24.0934 53.9025C24.1815 53.9385 24.2605 53.9906 24.3252 54.0553C24.3917 54.12 24.4438 54.1972 24.4834 54.2853C24.5211 54.3733 24.5409 54.4686 24.5409 54.5692V56.3841C24.5409 56.4686 24.566 56.5315 24.6145 56.5692C24.6577 56.6033 24.7152 56.6195 24.7835 56.6195H25.0584C25.1249 56.6195 25.1806 56.5997 25.2273 56.562C25.2614 56.5333 25.3028 56.4775 25.3028 56.3823V54.6968C25.3028 54.4776 25.2686 54.2709 25.2021 54.0786C25.1375 53.8846 25.0404 53.7138 24.9146 53.5683Z" fill="#221F1F"/>
<path d="M30.5521 53.1514H30.2718C30.1478 53.1514 30.0562 53.2125 30.0112 53.3239L29.1756 55.385L28.3437 53.3239C28.3203 53.2736 28.288 53.2322 28.2484 53.2017C28.2053 53.1693 28.1496 53.1514 28.0849 53.1514H27.801C27.5836 53.1514 27.5674 53.3023 27.5674 53.349C27.5674 53.394 27.5746 53.4335 27.5889 53.4694L28.8181 56.4326C28.8414 56.4901 28.8666 56.5314 28.8953 56.5602C28.9331 56.5979 28.9924 56.6159 29.075 56.6159H29.2691C29.3248 56.6159 29.3751 56.6033 29.4182 56.5781C29.465 56.5512 29.5027 56.5027 29.5332 56.429L30.7498 53.4928C30.7606 53.4748 30.7677 53.4533 30.7731 53.4227C30.7803 53.3886 30.7839 53.367 30.7839 53.349C30.7839 53.3041 30.7659 53.1514 30.5521 53.1514Z" fill="#221F1F"/>
<path d="M33.7376 53.1606H33.4627C33.3746 53.1606 33.3207 53.1948 33.2902 53.2235C33.2452 53.2667 33.2219 53.326 33.2219 53.3996V55.2164C33.2165 55.3152 33.1913 55.4086 33.1482 55.4949C33.1051 55.5811 33.0476 55.6584 32.9793 55.7231C32.911 55.7878 32.8302 55.8399 32.7421 55.8758C32.5642 55.9495 32.3558 55.9477 32.1779 55.874C32.0862 55.8363 32.0036 55.7842 31.9335 55.7177C31.8634 55.653 31.8059 55.5757 31.7646 55.4877C31.7232 55.4032 31.7035 55.3098 31.7035 55.2128V53.4176C31.7035 53.3385 31.6873 53.2792 31.655 53.2361C31.6172 53.1858 31.5525 53.1606 31.4627 53.1606H31.1931C31.1266 53.1606 31.0656 53.184 31.0188 53.2289C30.9685 53.2756 30.9434 53.3421 30.9434 53.4248V55.2056C30.9434 55.4104 30.9811 55.6045 31.0566 55.7842C31.132 55.9621 31.2363 56.1202 31.3674 56.2532C31.4986 56.3862 31.655 56.494 31.8311 56.5695C32.0089 56.6467 32.2012 56.6863 32.4043 56.6863C32.5157 56.6863 32.6217 56.6701 32.7187 56.6377C32.814 56.6072 32.9038 56.5641 32.9829 56.5102C33.0602 56.458 33.1338 56.3987 33.2003 56.3323C33.2183 56.3143 33.2345 56.2963 33.2524 56.2783C33.2596 56.3143 33.2668 56.352 33.2758 56.3898C33.2776 56.4491 33.2992 56.503 33.3369 56.5461C33.38 56.5928 33.4411 56.6162 33.5184 56.6162H33.7394C33.8077 56.6162 33.867 56.5928 33.9101 56.5497C33.9532 56.5066 33.9766 56.4473 33.9766 56.379V53.4014C33.982 53.2505 33.8904 53.1606 33.7376 53.1606Z" fill="#221F1F"/>
<path d="M32.825 57.1317C32.7801 57.0868 32.7243 57.049 32.6633 57.0221C32.5411 56.9682 32.3865 56.9664 32.2607 57.0221C32.2014 57.049 32.1475 57.085 32.1026 57.1317C32.0559 57.1784 32.0199 57.2323 31.993 57.2934C31.966 57.3563 31.9517 57.4228 31.9517 57.4929C31.9517 57.563 31.966 57.6294 31.993 57.6905C32.0199 57.7498 32.0559 57.8037 32.1026 57.8505C32.1475 57.8954 32.2014 57.9331 32.2625 57.9601C32.3236 57.987 32.3901 58.0014 32.4602 58.0014C32.5321 58.0014 32.6004 57.987 32.6633 57.9601C32.7243 57.9331 32.7783 57.8972 32.825 57.8505C32.8717 57.8037 32.9076 57.7498 32.9328 57.6905C32.958 57.6294 32.9723 57.563 32.9723 57.4929C32.9723 57.4228 32.9597 57.3563 32.9346 57.2952C32.9076 57.2323 32.8717 57.1784 32.825 57.1317Z" fill="#221F1F"/>
<path d="M39.0191 54.302H36.8897C36.7352 54.302 36.6436 54.3901 36.6436 54.5392V54.8195C36.6436 54.9723 36.7352 55.0639 36.8897 55.0639H39.0191C39.0892 55.0639 39.1503 55.037 39.1952 54.9848C39.2347 54.9381 39.2563 54.8806 39.2563 54.8195V54.5392C39.2563 54.4476 39.2168 54.3936 39.1826 54.3631C39.1377 54.3218 39.0802 54.302 39.0191 54.302Z" fill="#221F1F"/>
<path d="M46.5195 51.4736H46.1223C46.0541 51.4736 45.9966 51.4934 45.9498 51.5311C45.9103 51.5635 45.8797 51.603 45.86 51.6497L44.2877 53.8186L42.7081 51.6587C42.6884 51.6066 42.6578 51.5635 42.6165 51.5293C42.5698 51.4916 42.5123 51.4736 42.4476 51.4736H42.0666C41.993 51.4736 41.9337 51.497 41.8905 51.5419C41.8492 51.585 41.8276 51.6425 41.8276 51.7108V56.3811C41.8276 56.5302 41.9175 56.6183 42.0684 56.6183H42.3452C42.4152 56.6183 42.4727 56.5985 42.5159 56.5572C42.5626 56.5159 42.5841 56.4566 42.5841 56.3811V52.8663L43.9444 54.6758C43.9606 54.7063 43.9822 54.7387 44.0145 54.771C44.0594 54.8195 44.1205 54.8447 44.1924 54.8447H44.3847C44.4332 54.8447 44.4709 54.8375 44.5051 54.8195C44.5356 54.8052 44.559 54.7872 44.5806 54.7638C44.6003 54.7423 44.6147 54.7189 44.6255 54.6956L46.0037 52.8231V56.3793C46.0037 56.5284 46.0936 56.6165 46.2445 56.6165H46.5213C46.5913 56.6165 46.6488 56.5967 46.692 56.5554C46.7387 56.5141 46.7603 56.4548 46.7603 56.3793V51.709C46.7603 51.6407 46.7369 51.5814 46.6902 51.5365C46.6452 51.497 46.5877 51.4736 46.5195 51.4736Z" fill="#221F1F"/>
<path d="M48.0056 52.5498L48.1602 52.6971C48.1764 52.7097 48.1907 52.7223 48.2087 52.7331C48.2662 52.7726 48.3327 52.769 48.3794 52.7511C48.4064 52.7403 48.4315 52.7205 48.4423 52.7007L49.0173 52.1257L49.5798 52.6882C49.6031 52.7205 49.6319 52.7421 49.6642 52.7529C49.6876 52.76 49.7091 52.7636 49.7289 52.7636C49.7631 52.7636 49.7972 52.7529 49.826 52.7313C49.8421 52.7187 49.8583 52.7061 49.8691 52.6935L50.029 52.548C50.0434 52.5336 50.0578 52.5175 50.0685 52.5013C50.0883 52.4743 50.0991 52.4402 50.0991 52.4042C50.0991 52.3719 50.0901 52.3396 50.0703 52.309C50.056 52.2874 50.0434 52.2713 50.029 52.2569L49.1539 51.3818C49.1395 51.3674 49.1198 51.353 49.0982 51.3405C49.0371 51.3081 48.9778 51.3135 48.9275 51.3422C48.9059 51.3548 48.8915 51.3656 48.879 51.3782L48.0039 52.2569C47.9913 52.2695 47.9787 52.2856 47.9643 52.3054C47.9428 52.336 47.9302 52.3701 47.9302 52.4042C47.9302 52.442 47.9428 52.4779 47.9661 52.5067C47.9787 52.5228 47.9913 52.5354 48.0056 52.5498Z" fill="#221F1F"/>
<path d="M49.3784 57.1019C49.3334 57.057 49.2777 57.0192 49.2166 56.9923C49.0944 56.9384 48.9399 56.9366 48.8159 56.9923C48.7566 57.0192 48.7027 57.0552 48.6578 57.1001C48.6129 57.145 48.5751 57.2007 48.5482 57.2618C48.5212 57.3247 48.5068 57.3912 48.5068 57.4613C48.5068 57.5314 48.5212 57.5978 48.5482 57.6589C48.5751 57.7182 48.6111 57.7722 48.6578 57.8171C48.7027 57.862 48.7566 57.8997 48.8177 57.9267C48.8788 57.9536 48.9453 57.968 49.0154 57.968C49.0872 57.968 49.1555 57.9536 49.2184 57.9267C49.2795 57.8997 49.3334 57.8638 49.3801 57.8171C49.4269 57.7704 49.4628 57.7164 49.488 57.6571C49.5131 57.5961 49.5275 57.5296 49.5275 57.4595C49.5275 57.3894 49.5149 57.3229 49.4898 57.2618C49.4592 57.2025 49.4233 57.1486 49.3784 57.1019Z" fill="#221F1F"/>
<path d="M50.2894 53.6135C50.1277 53.4518 49.9336 53.3206 49.7144 53.2271C49.2724 53.0367 48.7387 53.0385 48.3056 53.2271C48.0882 53.3224 47.8959 53.4518 47.7342 53.6135C47.5725 53.7752 47.4413 53.9693 47.3496 54.1885C47.2562 54.4077 47.2095 54.6449 47.2095 54.8929C47.2095 55.1427 47.2562 55.3799 47.3496 55.5991C47.4431 55.8165 47.5725 56.0106 47.7342 56.1723C47.8959 56.3341 48.0882 56.4634 48.3056 56.5569C48.523 56.6503 48.7602 56.697 49.01 56.697C49.258 56.697 49.4934 56.6503 49.7144 56.5569C49.9336 56.4634 50.1277 56.3341 50.2894 56.1723C50.4512 56.0106 50.5823 55.8165 50.6758 55.5991C50.771 55.3799 50.8177 55.1427 50.8177 54.8929C50.8177 54.6449 50.7692 54.4095 50.6758 54.1885C50.5805 53.9693 50.4512 53.777 50.2894 53.6135ZM50.1008 54.8929C50.1008 55.0403 50.072 55.1804 50.0145 55.3116C49.957 55.4428 49.8779 55.5596 49.7773 55.6584C49.6767 55.7572 49.5599 55.8363 49.4287 55.8938C49.1681 56.0088 48.8519 56.0088 48.5931 55.8938C48.4619 55.8363 48.3469 55.7572 48.2481 55.6584C48.1493 55.5596 48.072 55.4428 48.0145 55.3116C47.9588 55.1804 47.93 55.0403 47.93 54.8929C47.93 54.7456 47.9588 54.6036 48.0145 54.4742C48.0702 54.343 48.1493 54.2262 48.2481 54.1256C48.3469 54.0268 48.4619 53.9459 48.5931 53.8884C48.7225 53.8309 48.8627 53.8022 49.01 53.8022C49.1574 53.8022 49.2975 53.8309 49.4287 53.8884C49.5599 53.9459 49.6767 54.025 49.7773 54.1256C49.8761 54.2262 49.957 54.343 50.0145 54.4742C50.072 54.6036 50.1008 54.7456 50.1008 54.8929Z" fill="#221F1F"/>
<path d="M52.7332 53.1557H52.3325V52.2967C52.3325 52.241 52.3217 52.1871 52.302 52.1404C52.284 52.099 52.2373 52.0308 52.1025 52.0308C52.1025 52.0308 52.1007 52.0308 52.0989 52.0308L51.7503 52.0829C51.6928 52.099 51.6515 52.1224 51.6227 52.153C51.5886 52.1889 51.5706 52.2392 51.5706 52.3003V53.1557H51.2561C51.1861 53.1557 51.1304 53.1682 51.0872 53.1934C51.0297 53.2275 51.001 53.2904 51.001 53.3821V53.6336C51.001 53.7235 51.0279 53.7864 51.0818 53.8223C51.125 53.8529 51.1825 53.8672 51.2543 53.8672H51.5688V55.7864C51.5688 55.9787 51.594 56.1296 51.6443 56.2482C51.6964 56.3686 51.7683 56.462 51.8581 56.5285C51.9462 56.5932 52.0486 56.6345 52.1636 56.6507C52.2678 56.6669 52.3774 56.6759 52.4888 56.6759C52.5086 56.6759 52.5284 56.6759 52.5481 56.6741C52.5679 56.6723 52.5859 56.6705 52.6056 56.6687C52.6757 56.6615 52.7332 56.6399 52.7764 56.6022C52.8123 56.5716 52.8536 56.5159 52.8536 56.4189V56.2087C52.8536 56.1098 52.8123 56.0505 52.7782 56.0182C52.7296 55.9733 52.6685 55.9517 52.5967 55.9517C52.5338 55.9499 52.4817 55.9463 52.4403 55.9391C52.4152 55.9355 52.399 55.9265 52.3846 55.9122C52.3738 55.8996 52.3595 55.8744 52.3487 55.8205C52.3379 55.7648 52.3343 55.6822 52.3343 55.5743V53.869H52.735C52.886 53.869 52.9758 53.7756 52.9758 53.6193V53.4018C52.9758 53.3174 52.9543 53.2545 52.9093 53.215C52.8662 53.1736 52.8069 53.1557 52.7332 53.1557Z" fill="#221F1F"/>
<path d="M59.8674 51.957C59.8224 51.9121 59.7667 51.8743 59.7056 51.8474C59.5817 51.7935 59.4289 51.7917 59.3049 51.8474C59.2456 51.8743 59.1917 51.9103 59.1468 51.957C59.1019 52.0019 59.0641 52.0576 59.0372 52.1187C59.0174 52.1655 59.0066 52.2158 59.0012 52.2679C58.9941 52.2571 58.9887 52.2427 58.9797 52.2337C58.9384 52.1906 58.8844 52.169 58.8269 52.169H58.4083V51.727C58.4083 51.6479 58.3777 51.5814 58.3184 51.5365C58.2663 51.4952 58.1998 51.4736 58.1207 51.4736H57.9267C57.8404 51.4736 57.7739 51.497 57.7254 51.5419C57.6913 51.5743 57.6499 51.6318 57.6499 51.7288V52.1708H57.0012C56.8611 52.1708 56.7766 52.2589 56.7766 52.4062V52.683C56.7766 52.8339 56.8611 52.9256 57.0012 52.9256H57.6499V53.4646C57.6428 53.4557 57.6338 53.4485 57.6266 53.4395C57.5565 53.3694 57.4756 53.3083 57.3876 53.2598C57.2995 53.2113 57.2007 53.1717 57.0929 53.1448C56.9851 53.1178 56.8629 53.1035 56.7299 53.1035C56.4837 53.1035 56.2573 53.152 56.0578 53.2454C55.8584 53.3389 55.6877 53.47 55.5457 53.6318C55.4056 53.7935 55.2959 53.9858 55.2187 54.2032C55.1432 54.4188 55.1055 54.6524 55.1055 54.8986C55.1055 55.1448 55.1432 55.3766 55.2187 55.5922C55.2941 55.8079 55.4038 56.0001 55.5457 56.1619C55.6877 56.3254 55.8602 56.4548 56.0578 56.5464C56.2573 56.6398 56.4837 56.6866 56.7299 56.6866C56.8629 56.6866 56.9851 56.674 57.0929 56.647C57.2007 56.6201 57.2995 56.5823 57.3876 56.532C57.4756 56.4835 57.5547 56.4242 57.6248 56.3559C57.6338 56.3487 57.641 56.3398 57.6499 56.3308V56.3577C57.6499 56.462 57.6949 56.5213 57.7344 56.5536C57.7847 56.5967 57.8512 56.6183 57.9303 56.6183H58.1315C58.2142 56.6183 58.2825 56.5949 58.331 56.5482C58.3669 56.5159 58.4083 56.4566 58.4083 56.3577V52.9238H58.8269C58.8934 52.9238 58.9509 52.895 58.9905 52.8411C59.0246 52.7944 59.0426 52.7405 59.0426 52.6812V52.5266C59.0695 52.5823 59.1037 52.6345 59.1468 52.6776C59.1917 52.7225 59.2456 52.7602 59.3067 52.7872C59.3678 52.8142 59.4343 52.8285 59.5062 52.8285C59.5781 52.8285 59.6463 52.8142 59.7092 52.7872C59.7703 52.7602 59.8242 52.7243 59.871 52.6776C59.9177 52.6309 59.9536 52.577 59.9788 52.5177C60.0039 52.4566 60.0183 52.3901 60.0183 52.32C60.0183 52.2499 60.0057 52.1834 59.9806 52.1223C59.9482 52.0594 59.9123 52.0037 59.8674 51.957ZM57.7039 54.8986C57.7039 55.0442 57.6805 55.1825 57.6356 55.3119C57.5906 55.4395 57.526 55.5527 57.4451 55.6479C57.3642 55.7414 57.2654 55.8168 57.1522 55.8726C57.0408 55.9283 56.915 55.9552 56.7802 55.9552C56.6275 55.9552 56.4927 55.9265 56.3795 55.8726C56.2663 55.8168 56.1693 55.7414 56.0938 55.6497C56.0165 55.5563 55.959 55.4431 55.9195 55.3155C55.88 55.1861 55.8602 55.046 55.8602 54.8986C55.8602 54.7513 55.88 54.6111 55.9195 54.4817C55.959 54.3541 56.0165 54.2409 56.0938 54.1457C56.1693 54.0522 56.2663 53.9768 56.3777 53.9229C56.4909 53.869 56.6257 53.842 56.7784 53.842C56.915 53.842 57.0426 53.869 57.154 53.9229C57.2672 53.9768 57.3642 54.0522 57.4433 54.1475C57.5242 54.2427 57.5871 54.3577 57.6338 54.4853C57.6805 54.6147 57.7039 54.7549 57.7039 54.8986Z" fill="#221F1F"/>
<path d="M59.6427 53.1514H59.3659C59.2923 53.1514 59.233 53.1747 59.1898 53.2197C59.1485 53.2628 59.127 53.3203 59.127 53.3886V56.3805C59.127 56.5296 59.2168 56.6177 59.3677 56.6177H59.6445C59.7146 56.6177 59.7721 56.5979 59.8152 56.5584C59.8619 56.517 59.8853 56.4577 59.8853 56.3823V53.3904C59.8853 53.3221 59.8619 53.2628 59.8152 53.2179C59.7685 53.1729 59.7092 53.1514 59.6427 53.1514Z" fill="#221F1F"/>
<path d="M63.1611 53.5763C63.0173 53.4271 62.8466 53.3067 62.6561 53.2187C62.2554 53.0372 61.7792 53.0462 61.3893 53.2313C61.188 53.3265 61.0101 53.4559 60.8592 53.6194C60.71 53.7811 60.5897 53.9734 60.5034 54.1926C60.4172 54.4101 60.374 54.6455 60.374 54.8935C60.374 55.1414 60.4172 55.3786 60.5034 55.5961C60.5897 55.8135 60.7083 56.004 60.8592 56.1675C61.0083 56.331 61.188 56.4604 61.3893 56.5538C61.5924 56.6473 61.8116 56.6958 62.0416 56.6958C62.135 56.6958 62.2357 56.6868 62.3381 56.667C62.4405 56.6491 62.5411 56.6221 62.6382 56.5898C62.737 56.5574 62.8322 56.5179 62.9221 56.4712C63.0119 56.4244 63.0928 56.3723 63.1557 56.322C63.1898 56.3005 63.2222 56.2699 63.2509 56.2358C63.2887 56.1908 63.3084 56.1387 63.3084 56.0848C63.3084 56.0489 63.2941 56.0094 63.2653 55.9626L63.1269 55.7308C63.1 55.6877 63.0443 55.6356 62.9347 55.6356C62.8933 55.6356 62.8502 55.6464 62.8035 55.6697C62.7622 55.6895 62.7244 55.7111 62.6867 55.7452C62.6508 55.7829 62.6076 55.8153 62.5591 55.8422C62.507 55.871 62.4513 55.8926 62.3938 55.9105C62.3345 55.9285 62.2734 55.9411 62.2141 55.9501C62.0254 55.9752 61.8673 55.9608 61.7217 55.9015C61.6211 55.862 61.5313 55.8045 61.4504 55.7326C61.3713 55.6607 61.303 55.5727 61.2491 55.4721C61.2114 55.4002 61.1808 55.3211 61.1611 55.2367H63.1036C63.1683 55.2367 63.2276 55.2331 63.2833 55.2259C63.348 55.2169 63.4037 55.1989 63.454 55.172C63.5061 55.1414 63.5492 55.1001 63.5798 55.0462C63.6121 54.9923 63.6265 54.924 63.6265 54.8395V54.7623C63.6265 54.5323 63.5852 54.3148 63.5007 54.1136C63.4216 53.9051 63.3066 53.7272 63.1611 53.5763ZM62.8592 54.5592H61.1952C61.2204 54.4819 61.2509 54.4101 61.2905 54.34C61.3462 54.2376 61.4127 54.1477 61.4899 54.0704C61.5654 53.995 61.6499 53.9357 61.7415 53.8926C61.9212 53.8081 62.1332 53.8081 62.3165 53.8926C62.41 53.9357 62.4962 53.9968 62.5735 54.0704C62.6508 54.1459 62.7172 54.2358 62.7729 54.3382C62.8071 54.4083 62.8376 54.4819 62.8592 54.5592Z" fill="#221F1F"/>
<path d="M60.9905 52.5498L61.145 52.6971C61.1612 52.7097 61.1774 52.7223 61.1935 52.7331C61.2511 52.7726 61.3175 52.7708 61.3643 52.7511C61.3912 52.7403 61.4146 52.7205 61.4272 52.7007L62.0022 52.1257L62.5646 52.69C62.588 52.7223 62.6167 52.7421 62.6491 52.7529C62.6724 52.76 62.694 52.7636 62.7138 52.7636C62.7497 52.7636 62.782 52.7529 62.8108 52.7313C62.827 52.7187 62.8431 52.7061 62.8539 52.6935L63.0139 52.548C63.0282 52.5336 63.0408 52.5174 63.0534 52.5031C63.0732 52.4761 63.0839 52.442 63.0839 52.4042C63.0839 52.3719 63.0749 52.3396 63.0552 52.309C63.0426 52.2892 63.0282 52.2713 63.0156 52.2569L62.1405 51.3818C62.1244 51.3656 62.1064 51.353 62.0848 51.3405C62.0237 51.3081 61.9644 51.3135 61.9159 51.3422C61.8944 51.3548 61.8782 51.3656 61.8674 51.3782L60.9923 52.2569C60.9797 52.2677 60.9671 52.2838 60.9528 52.3054C60.9312 52.336 60.9204 52.3701 60.9204 52.4042C60.9204 52.442 60.933 52.4779 60.9564 52.5067C60.9635 52.5228 60.9761 52.5372 60.9905 52.5498Z" fill="#221F1F"/>
<path d="M63.4701 50.6502C63.3946 50.5999 63.3084 50.5676 63.2167 50.5532C63.1305 50.5406 63.0299 50.5424 62.922 50.5586C62.8214 50.5729 62.6992 50.5963 62.5626 50.6251C62.5555 50.6269 62.5501 50.6286 62.5429 50.6322C62.5213 50.6358 62.5015 50.643 62.489 50.652C62.444 50.679 62.4099 50.7203 62.3937 50.7724C62.3812 50.8137 62.374 50.8569 62.3758 50.9036C62.3776 50.9467 62.383 50.988 62.3937 51.0294C62.4045 51.0743 62.4189 51.1102 62.4351 51.1372C62.4746 51.2091 62.5465 51.245 62.6417 51.2306C62.7172 51.2091 62.7837 51.1893 62.8448 51.1749C62.8987 51.1605 62.949 51.1552 62.9903 51.1552C63.0263 51.1552 63.0568 51.1623 63.082 51.1749C63.0999 51.1839 63.1143 51.2019 63.1251 51.2252C63.1305 51.2396 63.1323 51.254 63.1305 51.2684C63.1269 51.2899 63.1197 51.3115 63.1107 51.3331C63.0999 51.3564 63.0856 51.3798 63.0712 51.4013C63.0514 51.4301 63.0334 51.457 63.0209 51.4786C62.9903 51.5235 62.9616 51.5738 62.9292 51.6278C62.8987 51.6817 62.8699 51.7356 62.8412 51.7913C62.7873 51.9009 62.8268 51.9764 62.8573 52.0123C62.8879 52.0518 62.9472 52.0968 63.046 52.0968H63.321C63.4054 52.0968 63.4485 52.0518 63.4665 52.0249C63.4917 51.9871 63.5042 51.9278 63.5096 51.82C63.5096 51.8182 63.5096 51.8164 63.5096 51.8146C63.5096 51.7949 63.5114 51.7769 63.5168 51.7607C63.524 51.741 63.533 51.723 63.5456 51.7032C63.5582 51.6817 63.5725 51.6601 63.5905 51.6385C63.6121 51.6116 63.6336 51.5792 63.657 51.5469C63.7289 51.4463 63.7702 51.3366 63.7792 51.2198C63.7882 51.1012 63.7594 50.9826 63.6857 50.8623C63.6157 50.7724 63.542 50.7005 63.4701 50.6502Z" fill="#221F1F"/>
<path d="M68.7299 53.5401C68.6113 53.4036 68.4676 53.2957 68.304 53.2149C68.1369 53.134 67.9501 53.0945 67.7488 53.0945C67.614 53.0945 67.49 53.1142 67.3786 53.1538C67.269 53.1915 67.1666 53.2454 67.0731 53.3137C66.9815 53.3802 66.9006 53.4611 66.8306 53.5509C66.7928 53.5994 66.7569 53.6497 66.7245 53.7019C66.6922 53.6533 66.6545 53.6048 66.6149 53.5599C66.5377 53.4718 66.4478 53.3946 66.349 53.3281C66.2483 53.2616 66.1369 53.2077 66.0165 53.1682C65.7955 53.0963 65.5152 53.0855 65.3103 53.1574C65.2205 53.1879 65.1378 53.2311 65.0642 53.2814C64.9923 53.3317 64.9258 53.391 64.8683 53.4557C64.8665 53.4593 64.8629 53.4611 64.8611 53.4647L64.8557 53.3928C64.8485 53.3281 64.827 53.2742 64.7892 53.2346C64.7479 53.1879 64.6868 53.1646 64.6131 53.1646H64.3633C64.2951 53.1646 64.2358 53.1879 64.1926 53.2293C64.1477 53.2724 64.1226 53.3317 64.1226 53.4018V56.3793C64.1226 56.5284 64.2142 56.6165 64.3669 56.6165H64.6437C64.712 56.6165 64.7677 56.5967 64.8108 56.5572C64.8575 56.5159 64.8809 56.4566 64.8809 56.3811V54.5518C64.8809 54.4548 64.8988 54.3631 64.9348 54.2769C64.9707 54.1906 65.0192 54.1151 65.0821 54.0505C65.1432 53.9876 65.2169 53.9355 65.3014 53.8995C65.4685 53.8258 65.6751 53.8276 65.8332 53.9013C65.9141 53.939 65.986 53.9894 66.0453 54.0541C66.1046 54.1169 66.1531 54.1942 66.1855 54.2787C66.2196 54.3649 66.2358 54.4584 66.2358 54.559V56.3631C66.2358 56.4404 66.2519 56.4997 66.2861 56.5428C66.3256 56.5913 66.3867 56.6165 66.4712 56.6165H66.7389C66.897 56.6165 66.9923 56.5195 66.9923 56.3559V54.568C66.9923 54.4656 67.012 54.3703 67.0534 54.2823C67.0947 54.1942 67.1486 54.1169 67.2169 54.0523C67.2852 53.9876 67.366 53.9355 67.4541 53.8995C67.6302 53.8258 67.835 53.8276 67.9842 53.8995C68.0597 53.9355 68.1226 53.9858 68.1747 54.0487C68.2268 54.1116 68.2681 54.1888 68.2969 54.2733C68.3256 54.3613 68.34 54.4566 68.34 54.5572V56.3613C68.34 56.5195 68.4406 56.6147 68.6077 56.6147H68.8449C68.9168 56.6147 68.9779 56.5913 69.0264 56.5464C69.0767 56.4997 69.1019 56.435 69.1019 56.3541V54.5662C69.1019 54.3721 69.0695 54.1834 69.0067 54.0073C68.9384 53.833 68.8467 53.6749 68.7299 53.5401Z" fill="#221F1F"/>
<path d="M74.5573 55.9996C74.5555 55.9942 74.5519 55.987 74.5483 55.9816L74.3651 55.7121C74.3111 55.633 74.2105 55.6114 74.1171 55.6564C74.0901 55.6689 74.065 55.6833 74.038 55.7049C73.9392 55.7893 73.826 55.8576 73.7002 55.9061C73.4235 56.0139 73.1485 55.9978 72.9095 55.8935C72.7783 55.836 72.6615 55.757 72.5627 55.6581C72.4639 55.5593 72.3848 55.4425 72.3273 55.3113C72.2698 55.1802 72.2411 55.04 72.2411 54.8926C72.2411 54.7453 72.2698 54.6051 72.3273 54.474C72.3848 54.3428 72.4639 54.2242 72.5627 54.1254C72.6615 54.0265 72.7783 53.9457 72.9095 53.8882C73.1557 53.7803 73.4522 53.7714 73.6912 53.8756C73.808 53.9259 73.9158 53.9924 74.0182 54.0732C74.0434 54.0912 74.0686 54.1056 74.0901 54.1182C74.1997 54.1757 74.277 54.1379 74.3327 54.0714C74.3381 54.0643 74.3417 54.0589 74.3453 54.0517L74.5196 53.7803C74.5286 53.766 74.5358 53.748 74.5447 53.721C74.5519 53.6977 74.5555 53.6761 74.5555 53.6564C74.5555 53.6078 74.5358 53.5629 74.5016 53.527C74.4854 53.5108 74.4639 53.491 74.4369 53.4713C74.4315 53.4623 74.4226 53.4551 74.4136 53.4479C74.2285 53.3203 74.047 53.2269 73.8745 53.1712C73.4684 53.0382 73.0066 53.0616 72.6238 53.2269C72.4064 53.3221 72.2123 53.4515 72.0506 53.6132C71.8889 53.7749 71.7577 53.969 71.666 54.1882C71.5726 54.4075 71.5259 54.6447 71.5259 54.8926C71.5259 55.1424 71.5726 55.3796 71.666 55.5988C71.7595 55.8163 71.8889 56.0103 72.0506 56.1721C72.2123 56.3338 72.4064 56.4632 72.6238 56.5566C72.843 56.6501 73.0802 56.6968 73.33 56.6968C73.5438 56.6968 73.7469 56.6572 73.9374 56.5818C74.1225 56.5063 74.2932 56.4147 74.4405 56.3104C74.4693 56.2943 74.4962 56.2709 74.5268 56.244C74.5699 56.2044 74.5915 56.1505 74.5915 56.0912C74.5915 56.0678 74.5825 56.0463 74.5735 56.0283C74.5645 56.0157 74.5609 56.0068 74.5573 55.9996Z" fill="#221F1F"/>
<path d="M77.6158 53.5683C77.49 53.4227 77.3337 53.3059 77.154 53.2215C76.9725 53.137 76.7676 53.0939 76.5448 53.0939C76.4388 53.0939 76.3382 53.1083 76.2465 53.1352C76.1567 53.1622 76.0722 53.1981 75.995 53.243C75.9195 53.288 75.8494 53.3401 75.7847 53.3976C75.7811 53.4012 75.7775 53.4048 75.7739 53.4084V51.7139C75.7739 51.6438 75.7488 51.5845 75.7003 51.5395C75.6535 51.4964 75.596 51.4749 75.5313 51.4749H75.2564C75.163 51.4749 75.1073 51.5126 75.0785 51.5449C75.0372 51.5899 75.0156 51.6474 75.0156 51.7139V56.3805C75.0156 56.5297 75.1055 56.6177 75.2564 56.6177H75.5367C75.6859 56.6177 75.7739 56.5297 75.7739 56.3805V54.5548C75.7793 54.4578 75.8045 54.3661 75.8458 54.2799C75.8871 54.1936 75.9429 54.1164 76.0111 54.0535C76.0794 53.9906 76.1567 53.9385 76.2447 53.9025C76.419 53.8289 76.6221 53.8307 76.7946 53.9025C76.8827 53.9385 76.9617 53.9906 77.0264 54.0553C77.0929 54.12 77.145 54.1972 77.1845 54.2853C77.2223 54.3733 77.242 54.4686 77.242 54.5692V56.3841C77.242 56.4686 77.2672 56.5315 77.3157 56.5692C77.3588 56.6033 77.4163 56.6195 77.4846 56.6195H77.7596C77.8261 56.6195 77.8818 56.5997 77.9285 56.562C77.9626 56.5333 78.0039 56.4775 78.0039 56.3823V54.6968C78.0039 54.4776 77.9698 54.2709 77.9033 54.0786C77.8386 53.8846 77.7416 53.7138 77.6158 53.5683Z" fill="#221F1F"/>
<path d="M81.5454 53.1518H81.3514C81.2651 53.1518 81.2004 53.1787 81.1591 53.2309C81.125 53.274 81.107 53.3315 81.0998 53.407L81.0926 53.5112C81.0836 53.5004 81.0747 53.4914 81.0657 53.4806C81.001 53.4088 80.9237 53.3441 80.8392 53.2884C80.753 53.2327 80.6542 53.1877 80.5428 53.1536C80.4313 53.1194 80.302 53.1033 80.1582 53.1033C79.9102 53.1033 79.6802 53.1518 79.4718 53.2452C79.2651 53.3387 79.0854 53.4681 78.9363 53.6298C78.7871 53.7915 78.6703 53.9838 78.5895 54.2012C78.5086 54.4168 78.4673 54.6522 78.4673 54.8984C78.4673 55.1446 78.5086 55.3782 78.5913 55.5938C78.6739 55.8095 78.7907 56.0017 78.9399 56.1617C79.089 56.3234 79.2687 56.4528 79.4754 56.5462C79.682 56.6397 79.912 56.6864 80.1564 56.6864C80.3002 56.6864 80.4278 56.6702 80.5392 56.6397C80.6488 56.6091 80.7494 56.5642 80.8357 56.5103C80.9219 56.4564 80.9974 56.3917 81.0639 56.3198C81.0675 56.3144 81.0729 56.3108 81.0764 56.3054V56.3593C81.0764 56.4312 81.0962 56.4923 81.1357 56.5408C81.1789 56.5929 81.2454 56.6199 81.3298 56.6199H81.5437C81.6119 56.6199 81.673 56.6001 81.7233 56.5606C81.7809 56.5175 81.8096 56.4546 81.8096 56.3827V53.4141C81.8096 53.3351 81.7809 53.2668 81.7233 53.2201C81.6748 53.1734 81.6137 53.1518 81.5454 53.1518ZM81.0782 54.9056C81.0782 55.0566 81.0567 55.1967 81.0136 55.3243C80.9722 55.4501 80.9111 55.5615 80.8339 55.6513C80.7566 55.7412 80.6614 55.8131 80.5481 55.8652C80.3253 55.9694 80.0001 55.9712 79.7665 55.8616C79.6497 55.8077 79.549 55.7322 79.4664 55.6388C79.3837 55.5453 79.319 55.4339 79.2741 55.3081C79.2292 55.1805 79.2058 55.0404 79.2058 54.893C79.2058 54.7475 79.2292 54.6091 79.2723 54.4797C79.3154 54.3521 79.3801 54.2389 79.4628 54.1455C79.5454 54.0521 79.6461 53.9766 79.7629 53.9209C79.8797 53.8652 80.0127 53.8382 80.1582 53.8382C80.3056 53.8382 80.4385 53.867 80.5517 53.9227C80.6649 53.9784 80.762 54.0557 80.8392 54.1491C80.9165 54.2443 80.9776 54.3575 81.0171 54.4869C81.0585 54.6199 81.0782 54.7601 81.0782 54.9056Z" fill="#221F1F"/>
<path d="M80.5032 57.1019C80.4583 57.057 80.4026 57.0192 80.3415 56.9923C80.2193 56.9384 80.0647 56.9366 79.9408 56.9923C79.8815 57.0192 79.8275 57.0552 79.7808 57.1019C79.7341 57.1486 79.6982 57.2025 79.6712 57.2636C79.6443 57.3265 79.6299 57.393 79.6299 57.4631C79.6299 57.5332 79.6443 57.5996 79.6712 57.6607C79.6982 57.72 79.7341 57.7739 79.7808 57.8207C79.8257 57.8656 79.8797 57.9033 79.9408 57.9303C80.0018 57.9572 80.0683 57.9716 80.1384 57.9716C80.2103 57.9716 80.2786 57.9572 80.3415 57.9303C80.4026 57.9033 80.4565 57.8674 80.5032 57.8207C80.5499 57.7739 80.5859 57.72 80.611 57.6607C80.6362 57.5996 80.6487 57.5332 80.6487 57.4631C80.6487 57.393 80.6362 57.3265 80.611 57.2654C80.5859 57.2025 80.5481 57.1486 80.5032 57.1019Z" fill="#221F1F"/>
<path d="M87.4308 54.0091C87.3661 53.8312 87.2745 53.6749 87.1577 53.5401C87.0391 53.4036 86.8953 53.2957 86.7318 53.2149C86.5647 53.134 86.3778 53.0945 86.1765 53.0945C86.0418 53.0945 85.9178 53.1142 85.8064 53.1538C85.6967 53.1915 85.5943 53.2454 85.5009 53.3137C85.4092 53.3802 85.3284 53.4611 85.2583 53.5509C85.2205 53.5994 85.1846 53.6497 85.1523 53.7019C85.1199 53.6533 85.0822 53.6048 85.0427 53.5599C84.9654 53.4718 84.8755 53.3946 84.7767 53.3281C84.6761 53.2616 84.5647 53.2077 84.4443 53.1682C84.2232 53.0963 83.9429 53.0855 83.7381 53.1574C83.6482 53.1879 83.5656 53.2311 83.4919 53.2814C83.42 53.3317 83.3535 53.391 83.296 53.4557C83.2942 53.4593 83.2906 53.4611 83.2888 53.4647L83.2834 53.3928C83.2763 53.3281 83.2547 53.2742 83.217 53.2346C83.1756 53.1879 83.1145 53.1646 83.0409 53.1646H82.7911C82.7228 53.1646 82.6635 53.1879 82.6204 53.2293C82.5754 53.2724 82.5503 53.3317 82.5503 53.4018V56.3793C82.5503 56.5284 82.6419 56.6165 82.7947 56.6165H83.0714C83.1397 56.6165 83.1954 56.5967 83.2385 56.5572C83.2852 56.5159 83.3086 56.4566 83.3086 56.3811V54.5518C83.3086 54.4548 83.3266 54.3631 83.3625 54.2769C83.3984 54.1906 83.447 54.1151 83.5099 54.0505C83.571 53.9876 83.6446 53.9355 83.7291 53.8995C83.8962 53.8258 84.1029 53.8276 84.261 53.9013C84.3418 53.939 84.4137 53.9894 84.473 54.0541C84.5323 54.1169 84.5808 54.1942 84.6132 54.2787C84.6473 54.3649 84.6635 54.4584 84.6635 54.559V56.3631C84.6635 56.4404 84.6797 56.4997 84.7138 56.5428C84.7533 56.5913 84.8144 56.6165 84.8989 56.6165H85.1666C85.3248 56.6165 85.42 56.5195 85.42 56.3559V54.568C85.42 54.4656 85.4398 54.3703 85.4811 54.2823C85.5224 54.1942 85.5763 54.1169 85.6446 54.0523C85.7129 53.9876 85.7938 53.9355 85.8818 53.8995C86.0579 53.8258 86.2628 53.8276 86.4119 53.8995C86.4874 53.9355 86.5503 53.9858 86.6024 54.0487C86.6545 54.1116 86.6958 54.1888 86.7246 54.2733C86.7533 54.3613 86.7677 54.4566 86.7677 54.5572V56.3613C86.7677 56.5195 86.8684 56.6147 87.0355 56.6147H87.2727C87.3445 56.6147 87.4056 56.5913 87.4542 56.5464C87.5045 56.4997 87.5296 56.435 87.5296 56.3541V54.5662C87.526 54.3739 87.4937 54.1852 87.4308 54.0091Z" fill="#221F1F"/>
</svg>
